<svg width="37" height="35" viewBox="0 0 37 35" fill="none" xmlns="http://www.w3.org/2000/svg">
<g clip-path="url(#clip0_2114_23)">
<path d="M5.81548 35.224H31.1986C34.8858 35.224 36.7507 33.3456 36.7507 29.661V6.83044C36.7507 3.14579 34.8858 1.26733 31.1986 1.26733H5.81548C2.14254 1.26733 0.277588 3.13134 0.277588 6.83044V29.661C0.277588 33.3601 2.14254 35.224 5.81548 35.224ZM5.61617 32.6664C3.79394 32.6664 2.79741 31.6838 2.79741 29.7765V12.5381C2.79741 10.6163 3.79394 9.64813 5.61617 9.64813H31.3837C33.1917 9.64813 34.2167 10.6163 34.2167 12.5381V29.7765C34.2167 31.6838 33.1917 32.6664 31.3837 32.6664H5.61617ZM14.8839 16.2949H15.9659C16.578 16.2949 16.7489 16.1216 16.7489 15.5147V14.431C16.7489 13.8241 16.578 13.6651 15.9659 13.6651H14.8839C14.286 13.6651 14.1152 13.8241 14.1152 14.431V15.5147C14.1152 16.1216 14.286 16.2949 14.8839 16.2949ZM21.0767 16.2949H22.1587C22.7565 16.2949 22.9274 16.1216 22.9274 15.5147V14.431C22.9274 13.8241 22.7565 13.6651 22.1587 13.6651H21.0767C20.4646 13.6651 20.2938 13.8241 20.2938 14.431V15.5147C20.2938 16.1216 20.4646 16.2949 21.0767 16.2949ZM27.2553 16.2949H28.3371C28.9351 16.2949 29.1202 16.1216 29.1202 15.5147V14.431C29.1202 13.8241 28.9351 13.6651 28.3371 13.6651H27.2553C26.6573 13.6651 26.4723 13.8241 26.4723 14.431V15.5147C26.4723 16.1216 26.6573 16.2949 27.2553 16.2949ZM8.70543 22.465H9.78739C10.3853 22.465 10.5704 22.306 10.5704 21.6992V20.601C10.5704 20.0085 10.3853 19.8351 9.78739 19.8351H8.70543C8.1075 19.8351 7.92244 20.0085 7.92244 20.601V21.6992C7.92244 22.306 8.1075 22.465 8.70543 22.465ZM14.8839 22.465H15.9659C16.578 22.465 16.7489 22.306 16.7489 21.6992V20.601C16.7489 20.0085 16.578 19.8351 15.9659 19.8351H14.8839C14.286 19.8351 14.1152 20.0085 14.1152 20.601V21.6992C14.1152 22.306 14.286 22.465 14.8839 22.465ZM21.0767 22.465H22.1587C22.7565 22.465 22.9274 22.306 22.9274 21.6992V20.601C22.9274 20.0085 22.7565 19.8351 22.1587 19.8351H21.0767C20.4646 19.8351 20.2938 20.0085 20.2938 20.601V21.6992C20.2938 22.306 20.4646 22.465 21.0767 22.465ZM27.2553 22.465H28.3371C28.9351 22.465 29.1202 22.306 29.1202 21.6992V20.601C29.1202 20.0085 28.9351 19.8351 28.3371 19.8351H27.2553C26.6573 19.8351 26.4723 20.0085 26.4723 20.601V21.6992C26.4723 22.306 26.6573 22.465 27.2553 22.465ZM8.70543 28.6495H9.78739C10.3853 28.6495 10.5704 28.4904 10.5704 27.8836V26.7854C10.5704 26.1785 10.3853 26.0196 9.78739 26.0196H8.70543C8.1075 26.0196 7.92244 26.1785 7.92244 26.7854V27.8836C7.92244 28.4904 8.1075 28.6495 8.70543 28.6495ZM14.8839 28.6495H15.9659C16.578 28.6495 16.7489 28.4904 16.7489 27.8836V26.7854C16.7489 26.1785 16.578 26.0196 15.9659 26.0196H14.8839C14.286 26.0196 14.1152 26.1785 14.1152 26.7854V27.8836C14.1152 28.4904 14.286 28.6495 14.8839 28.6495ZM21.0767 28.6495H22.1587C22.7565 28.6495 22.9274 28.4904 22.9274 27.8836V26.7854C22.9274 26.1785 22.7565 26.0196 22.1587 26.0196H21.0767C20.4646 26.0196 20.2938 26.1785 20.2938 26.7854V27.8836C20.2938 28.4904 20.4646 28.6495 21.0767 28.6495Z" fill="#0A84FF"/>
</g>
<defs>
<clipPath id="clip0_2114_23">
<rect width="37" height="34" fill="white" transform="translate(0 0.5)"/>
</clipPath>
</defs>
</svg>
