<svg width="49" height="33" viewBox="0 0 49 33" fill="none" xmlns="http://www.w3.org/2000/svg">
<path d="M21.1727 21.0245C18.4388 23.3231 16.9019 26.2602 16.9019 28.8856C16.9019 29.6392 17.0655 30.3486 17.4391 30.9552H4.35476C2.39062 30.9552 1.57654 30.2025 1.57654 28.7602C1.57654 24.2574 6.25428 18.9144 13.749 18.9144C16.7016 18.9144 19.2166 19.7408 21.1727 21.0245ZM19.538 10.235C19.538 13.7344 16.9019 16.4434 13.7749 16.4434C10.6478 16.4434 7.99874 13.7344 7.99874 10.2601C7.99874 6.86106 10.6736 4.2146 13.7749 4.2146C16.8761 4.2146 19.538 6.81089 19.538 10.235Z" fill="#0A84FF"/>
<path d="M32.9638 16.0797C36.569 16.0797 39.5928 12.9693 39.5928 8.95567C39.5928 5.02988 36.5432 2.03223 32.9638 2.03223C29.3974 2.03223 26.3478 5.08005 26.3478 8.98075C26.3478 12.9693 29.3716 16.0797 32.9638 16.0797ZM22.2903 30.9552H43.6115C46.0021 30.9552 46.9325 30.2904 46.9325 28.8856C46.9325 24.7216 41.5698 18.9771 32.9508 18.9771C24.332 18.9771 18.9693 24.7216 18.9693 28.8856C18.9693 30.2904 19.8998 30.9552 22.2903 30.9552Z" fill="#0A84FF"/>
</svg>
