<svg width="30" height="42" viewBox="0 0 30 42" fill="none" xmlns="http://www.w3.org/2000/svg">
<path d="M5.04875 40.3915H24.4621C27.37 40.3915 29.0109 38.7206 29.0109 35.6358V21.015C29.0109 17.9464 27.37 16.2755 24.4621 16.2755H5.04875C2.12455 16.2755 0.5 17.9464 0.5 21.015V35.6358C0.5 38.7206 2.12455 40.3915 5.04875 40.3915ZM4.22022 17.6412H7.07943V11.0699C7.07943 5.7197 10.5072 2.68312 14.7473 2.68312C18.9874 2.68312 22.4477 5.7197 22.4477 11.0699V17.6412H25.3069V11.4073C25.3069 3.92025 20.3683 0 14.7473 0C9.1426 0 4.22022 3.92025 4.22022 11.4073V17.6412Z" fill="#FFCC00"/>
</svg>
