<svg width="32" height="34" viewBox="0 0 32 34" fill="none" xmlns="http://www.w3.org/2000/svg">
<path d="M29.1053 1H2.89466C1.296 1 0 2.296 0 3.89466V30.1053C0 31.704 1.296 33 2.89466 33H29.1053C30.704 33 32 31.704 32 30.1053V3.89466C32 2.296 30.704 1 29.1053 1ZM9.90216 28.6309C9.90216 29.0962 9.52503 29.4733 9.05977 29.4733H5.47393C5.00867 29.4733 4.63154 29.0962 4.63154 28.6309V13.5992C4.63154 13.1339 5.00867 12.7568 5.47393 12.7568H9.05977C9.52503 12.7568 9.90216 13.1339 9.90216 13.5992V28.6309ZM7.26685 11.3399C5.38547 11.3399 3.86027 9.81466 3.86027 7.93328C3.86027 6.0519 5.38547 4.5267 7.26685 4.5267C9.14823 4.5267 10.6734 6.0519 10.6734 7.93328C10.6734 9.81466 9.14831 11.3399 7.26685 11.3399ZM28.6417 28.6988C28.6417 29.1265 28.2949 29.4733 27.8671 29.4733H24.0193C23.5915 29.4733 23.2447 29.1265 23.2447 28.6988V21.648C23.2447 20.5962 23.5533 17.039 20.496 17.039C18.1246 17.039 17.6436 19.4738 17.547 20.5665V28.6988C17.547 29.1265 17.2003 29.4733 16.7724 29.4733H13.0509C12.6232 29.4733 12.2764 29.1265 12.2764 28.6988V13.5314C12.2764 13.1036 12.6232 12.7568 13.0509 12.7568H16.7724C17.2002 12.7568 17.547 13.1036 17.547 13.5314V14.8428C18.4263 13.5231 19.7331 12.5046 22.5155 12.5046C28.6769 12.5046 28.6417 18.2609 28.6417 21.4237V28.6988Z" fill="black"/>
</svg>
