<svg width="35" height="35" viewBox="0 0 35 35" fill="none" xmlns="http://www.w3.org/2000/svg">
<g clip-path="url(#clip0_2114_15)">
<path d="M17.2482 34.5C21.4212 34.5 25.3822 32.9859 28.5087 30.3234L16.3739 18.6028C16.0693 18.3027 15.9898 18.0416 15.9898 17.5848V0.565278C7.11392 1.20482 0 8.61824 0 17.5065C0 26.8124 7.81604 34.5 17.2482 34.5ZM34.5099 17.4934C34.5099 14.9614 33.8739 12.338 32.7876 10.1975L18.8248 18.0808L29.9527 28.9268C32.7744 25.938 34.5099 21.7875 34.5099 17.4934ZM17.9637 16.2927L31.8074 8.47467C28.8266 3.71076 23.3157 0.695796 17.9637 0.526123V16.2927Z" fill="#0A84FF"/>
</g>
<defs>
<clipPath id="clip0_2114_15">
<rect width="35" height="34" fill="white" transform="translate(0 0.5)"/>
</clipPath>
</defs>
</svg>
