<svg width="35" height="35" viewBox="0 0 35 35" fill="none" xmlns="http://www.w3.org/2000/svg">
<g clip-path="url(#clip0_2114_54)">
<path d="M34.5099 17.4935C34.5099 26.8445 26.7601 34.474 17.2482 34.474C7.7498 34.474 0 26.8445 0 17.4935C0 8.12945 7.7498 0.5 17.2482 0.5C26.7601 0.5 34.5099 8.12945 34.5099 17.4935ZM11.7241 15.3676H9.63096C9.33951 15.3676 9.10105 15.6024 9.10105 15.8893C9.10105 16.1763 9.33951 16.411 9.63096 16.411H11.5518C11.5253 16.737 11.4989 17.063 11.4989 17.4152C11.4989 17.7543 11.5253 18.0934 11.5518 18.4064H9.63096C9.33951 18.4064 9.10105 18.6412 9.10105 18.928C9.10105 19.2019 9.33951 19.4498 9.63096 19.4498H11.7241C12.5189 23.0231 15.4334 24.9795 19.4342 24.9795C19.8978 24.9795 20.4939 24.9664 20.9709 24.8621C21.4477 24.7447 21.8187 24.523 21.8187 24.0535C21.8187 23.571 21.4743 23.3231 20.9842 23.3231C20.4674 23.3231 20.229 23.4144 19.5137 23.4144C16.4401 23.4144 14.3471 21.9799 13.645 19.4498H19.209C19.4871 19.4498 19.7388 19.2019 19.7388 18.928C19.7388 18.6412 19.4871 18.4064 19.209 18.4064H13.4462C13.3933 18.0934 13.3933 17.7674 13.3933 17.4283C13.3933 17.0761 13.3933 16.737 13.4462 16.411H19.209C19.4871 16.411 19.7388 16.1763 19.7388 15.8893C19.7388 15.6024 19.4871 15.3676 19.209 15.3676H13.645C14.3338 12.8767 16.3606 11.4421 19.4739 11.4421C20.1097 11.4421 20.6264 11.5203 20.9842 11.5203C21.4743 11.5203 21.8187 11.2595 21.8187 10.7769C21.8187 10.3466 21.5272 10.0857 20.9709 9.95531C20.5469 9.86402 20.0038 9.83793 19.4342 9.83793C15.6718 9.83793 12.5454 11.6638 11.7241 15.3676Z" fill="#0A84FF"/>
</g>
<defs>
<clipPath id="clip0_2114_54">
<rect width="35" height="34" fill="white" transform="translate(0 0.5)"/>
</clipPath>
</defs>
</svg>
