<svg width="37" height="34" viewBox="0 0 37 34" fill="none" xmlns="http://www.w3.org/2000/svg">
<path d="M5.08971 33.1964H31.5431C34.276 33.1964 35.9236 31.2627 35.9236 28.8124C35.9236 28.0177 35.7012 27.1966 35.2698 26.4416L22.0496 3.02503C21.2258 1.55487 19.7744 0.826416 18.3229 0.826416C16.8584 0.826416 15.42 1.55487 14.5961 3.02503L1.37604 26.4416C0.93145 27.2098 0.722229 28.0177 0.722229 28.8124C0.722229 31.2627 2.36984 33.1964 5.08971 33.1964Z" fill="#FFCC00"/>
<path d="M18.3229 21.8587C17.5644 21.8587 17.146 21.4085 17.133 20.6137L16.9237 11.2895C16.9106 10.4948 17.486 9.92529 18.3099 9.92529C19.1205 9.92529 19.709 10.5081 19.6959 11.3027L19.4867 20.6137C19.4736 21.4216 19.042 21.8587 18.3229 21.8587ZM18.3229 27.3818C17.3945 27.3818 16.6099 26.6268 16.6099 25.7129C16.6099 24.7858 17.3814 24.0309 18.3229 24.0309C19.2513 24.0309 20.0359 24.7725 20.0359 25.7129C20.0359 26.6401 19.2382 27.3818 18.3229 27.3818Z" fill="black"/>
</svg>
