<svg width="115" height="111" viewBox="0 0 115 111" fill="none" xmlns="http://www.w3.org/2000/svg">
<path d="M45.51 7.56816C52.5964 4.81811 64.6351 0.66434 72.2142 0.501306C74.7861 0.446201 77.0086 2.14273 78.6886 4.02446C79.2287 4.32086 80.3997 3.78872 81.0073 4.32477C82.9135 6.00695 85.4082 11.3512 86.5634 13.5828C87.471 14.9053 89.5691 14.275 91.1232 16.1242C91.2354 16.2406 91.4299 16.4199 91.4942 16.5523C94.6425 17.0241 100.624 17.315 103.251 19.3741C109.319 23.3681 112.881 27.8052 114.371 35.0348C117.228 48.89 109.865 72.9111 102.161 84.5546C99.3433 88.8137 95.572 92.5247 91.6855 95.8193C90.9019 96.4838 90.227 97.1434 89.3485 97.6938C89.2131 97.6843 89.0326 97.6798 88.9047 97.6514C84.3018 102.01 77.6035 105.266 71.5889 107.114C69.8899 107.636 67.4342 108.24 65.885 108.798C51.2479 111.914 37.9955 111.245 25.3445 102.621C16.4966 96.5891 10.6888 89.4714 5.66666 80.1113C5.37108 79.8785 5.23842 79.5403 5.05936 79.1989C2.90963 75.89 0.468507 70.0469 0 66.1191C1.57976 66.3985 3.93254 67.0901 5.3082 67.8971C5.4948 67.3079 5.42679 66.4673 5.43567 65.837C5.60289 53.9701 6.28532 41.9666 8.26815 30.2514C8.58794 28.3618 9.05762 26.5202 9.32389 24.6172C10.8283 23.4816 14.7397 22.2343 16.6619 20.9284C17.4605 20.2382 20.1078 18.8628 21.1405 18.3489C28.7445 14.5656 37.536 10.4594 45.51 7.56816Z" fill="#DDF2FD"/>
<path d="M16.6619 20.9284C17.4605 20.2382 20.1078 18.8628 21.1405 18.3489C28.7445 14.5656 37.536 10.4594 45.51 7.56816C45.7284 8.92558 45.8028 10.5468 47.4619 10.7728C47.8865 11.283 47.9678 11.2175 48.0445 11.7787C50.3064 11.6032 53.1114 11.5957 55.3919 11.5612L55.3123 21.8307C55.3106 23.657 55.2617 26.2133 55.4656 27.9809C56.4408 28.3964 57.1734 28.725 58.254 28.8144C58.0634 30.0531 58.0611 32.0157 58.0588 33.3063C58.0529 36.581 57.9984 38.6632 57.3134 41.861C56.7299 41.8587 55.3145 41.8215 54.7986 41.888C52.5703 44.3753 53.4002 49.7811 53.1995 53.423C53.656 55.0383 53.782 55.1619 55.1674 56.1858C55.434 65.7979 55.073 75.4534 55.307 85.0685C55.3704 87.6698 57.3382 87.2016 59.1348 86.6362C59.2082 87.6526 59.2402 88.4185 59.2288 89.4361C59.1505 90.6778 59.3394 96.6837 59.0956 97.2279L58.9406 97.3361C58.8669 98.0166 60.6693 100.949 61.0472 101.744C61.6637 102.086 62.8473 104.474 63.41 105.322C64.0542 106.481 65.0681 107.744 65.885 108.798C51.2479 111.914 37.9955 111.245 25.3445 102.621C16.4966 96.5891 10.6888 89.4714 5.66666 80.1113C5.37108 79.8785 5.23842 79.5403 5.05936 79.1989C2.90963 75.89 0.468507 70.0469 0 66.1191C1.57976 66.3985 3.93254 67.0901 5.3082 67.8971C5.4948 67.3079 5.42679 66.4673 5.43567 65.837C5.60289 53.9701 6.28532 41.9666 8.26815 30.2514C8.58794 28.3618 9.05762 26.5202 9.32389 24.6172C10.8283 23.4816 14.7397 22.2343 16.6619 20.9284Z" fill="#FEE8F1"/>
<path d="M41.6245 76.0967C47.4668 72.9088 51.0671 66.2097 51.757 59.8413C51.9385 58.1637 52.3934 54.8368 53.1995 53.423C53.656 55.0383 53.782 55.1619 55.1674 56.1858C55.434 65.7979 55.073 75.4534 55.307 85.0685C55.3704 87.6698 57.3382 87.2016 59.1348 86.6362C59.2082 87.6526 59.2402 88.4185 59.2288 89.4361C59.1505 90.6778 59.3394 96.6837 59.0956 97.2279L58.9406 97.3361C58.8669 98.0166 60.6693 100.949 61.0472 101.744C61.6637 102.086 62.8473 104.474 63.41 105.322C64.0542 106.481 65.0681 107.744 65.885 108.798C51.2479 111.914 37.9955 111.245 25.3445 102.621C16.4966 96.5891 10.6888 89.4714 5.66666 80.1113C5.37108 79.8785 5.23842 79.5403 5.05936 79.1989C5.6459 79.555 6.52362 80.2756 6.96595 80.5185C8.95361 81.6095 12.8644 83.9341 14.9052 84.5973C15.7172 85.061 16.5675 85.4157 17.3285 85.8465C17.9186 86.2466 19.7381 87.3213 20.0613 87.7305L20.1826 87.8547C21.2878 88.038 22.7087 88.6314 23.8557 88.9356C25.6276 89.4055 27.0671 89.5597 28.8689 89.7514C31.7779 90.0964 34.3019 90.4016 37.2306 90.5682C37.8454 90.834 40.8468 90.5255 41.5753 90.4352C41.5759 85.8804 41.4503 80.6186 41.6245 76.0967Z" fill="#78CFFD"/>
<path d="M41.6245 76.0967C47.4668 72.9088 51.0671 66.2097 51.757 59.8413C51.9385 58.1637 52.3934 54.8368 53.1995 53.423C53.656 55.0383 53.782 55.1619 55.1674 56.1858C55.434 65.7979 55.073 75.4534 55.307 85.0685C55.3704 87.6698 57.3382 87.2016 59.1348 86.6362C59.2082 87.6526 59.2402 88.4185 59.2288 89.4361C59.1505 90.6778 59.3394 96.6837 59.0956 97.2279L58.9406 97.3361C58.1094 97.039 54.0862 97.2066 52.9289 97.1796C48.3261 97.073 44.1635 95.4374 40.0959 93.42C37.7958 92.2791 36.0867 91.9276 33.5109 92.076C31.933 92.1513 30.3192 92.017 28.7484 92.2146C26.2869 91.5866 24.7565 90.8161 22.4759 90.1395C21.3497 89.4723 20.8992 88.904 20.1826 87.8547C21.2878 88.038 22.7087 88.6314 23.8557 88.9356C25.6276 89.4055 27.0671 89.5597 28.8689 89.7514C31.7779 90.0964 34.3019 90.4016 37.2306 90.5682C37.8454 90.834 40.8468 90.5255 41.5753 90.4352C41.5759 85.8804 41.4503 80.6186 41.6245 76.0967Z" fill="#FEE8F1"/>
<path d="M22.4759 90.1395C24.7565 90.8161 26.2869 91.5866 28.7484 92.2146C30.3192 92.017 31.933 92.1513 33.5109 92.076C36.0867 91.9276 37.7958 92.2791 40.0959 93.42C44.1635 95.4374 48.3261 97.073 52.9289 97.1796C54.0862 97.2066 58.1094 97.039 58.9406 97.3361C58.8669 98.0166 60.6693 100.949 61.0472 101.744C61.6637 102.086 62.8473 104.474 63.41 105.322C56.3125 105.9 51.5198 106.351 44.5551 104.031C37.6323 101.725 30.0653 97.4897 24.7315 92.5139C24.1768 91.9961 22.7773 90.7238 22.4759 90.1395Z" fill="#353F89"/>
<path d="M28.7484 92.2146C30.3192 92.017 31.933 92.1513 33.5109 92.076C36.0867 91.9276 37.7958 92.2791 40.0959 93.42C44.1635 95.4374 48.3261 97.073 52.9289 97.1796C54.0862 97.2066 58.1094 97.039 58.9406 97.3361C58.8669 98.0166 60.6693 100.949 61.0472 101.744C59.9725 101.987 57.2093 102.007 56.0107 101.979C45.4089 101.727 37.7126 96.9334 28.7484 92.2146Z" fill="#78CFFD"/>
<path d="M5.05936 79.1989C5.6459 79.555 6.52362 80.2756 6.96595 80.5185C8.95361 81.6095 12.8644 83.9341 14.9052 84.5973C15.7172 85.061 16.5675 85.4157 17.3285 85.8465C17.9186 86.2466 19.7381 87.3213 20.0613 87.7305C19.4171 87.694 18.4227 87.3865 17.7881 87.2283C14.3087 86.361 11.5924 84.8265 8.79419 82.6148C7.94098 81.9405 6.51817 80.5446 5.66666 80.1113C5.37108 79.8785 5.23842 79.5403 5.05936 79.1989Z" fill="#353F89"/>
<path d="M16.8642 33.4312C24.2791 35.8897 27.0782 38.044 28.4338 45.9316C28.5233 46.4517 28.7047 48.6112 28.7958 48.8372C28.9547 52.2635 28.815 56.6344 28.8098 60.1227L28.8408 78.6515C28.8447 82.246 28.7661 86.1797 28.8689 89.7514C27.0671 89.5597 25.6276 89.4055 23.8557 88.9356C22.7087 88.6314 21.2878 88.038 20.1826 87.8547L20.0613 87.7305C19.7381 87.3213 17.9186 86.2466 17.3285 85.8465C17.0954 83.7309 16.6633 82.4414 16.7326 80.0627C16.8368 76.4844 16.6272 72.6688 16.7196 69.0729C16.7405 68.2607 16.6302 65.8227 16.8711 65.2129C16.7669 64.5504 17.0118 61.3027 17.183 60.7103C17.8462 58.4164 17.2499 57.9504 16.7885 55.8105C16.7521 55.6416 16.9672 55.5362 17.1035 55.4325C17.0839 55.4237 17.0621 55.4188 17.0447 55.4061C16.3498 54.9102 16.7735 35.9755 16.8642 33.4312Z" fill="#DDF2FD"/>
<path d="M17.1035 55.4325C21.4983 55.4775 22.5123 61.3901 19.6983 64.0234C18.7985 64.8653 18.0604 65.014 16.8711 65.2129C16.7669 64.5504 17.0118 61.3027 17.183 60.7103C17.8462 58.4164 17.2499 57.9504 16.7885 55.8105C16.7521 55.6416 16.9672 55.5362 17.1035 55.4325Z" fill="#FEA7C8"/>
<path d="M32.3236 54.2949C32.5808 51.8944 32.4629 49.4398 32.5099 47.0317C32.5328 45.8579 31.9845 41.6738 34.1276 42.1981C37.6597 43.0625 38.5797 46.7963 40.3041 49.4675C40.3674 49.5656 41.1438 49.8522 41.2953 49.9041C45.1749 51.8178 46.5054 57.028 44.5982 60.7918C43.8248 62.3178 42.7429 63.4906 41.3481 64.4757C41.7205 67.783 41.3204 72.4588 41.6245 76.0967C41.4503 80.6186 41.5759 85.8804 41.5753 90.4352C40.8468 90.5255 37.8454 90.834 37.2306 90.5682C34.3019 90.4016 31.7779 90.0964 28.8689 89.7514C28.7661 86.1797 28.8447 82.246 28.8408 78.6515L28.8098 60.1227C28.815 56.6344 28.9547 52.2635 28.7958 48.8372L28.9211 48.456C29.5826 48.7296 31.5795 53.2049 32.3236 54.2949Z" fill="#FEDA66"/>
<path d="M41.3481 64.4757C41.7205 67.783 41.3204 72.4588 41.6245 76.0967C41.4503 80.6186 41.5759 85.8804 41.5753 90.4352C40.8468 90.5255 37.8454 90.834 37.2306 90.5682L37.3787 90.4747C37.7175 89.7971 37.3265 69.2927 37.5543 66.287C39.0108 65.6609 39.9533 65.2495 41.3481 64.4757Z" fill="#FEC1D9"/>
<path d="M41.2953 49.9041C41.48 48.3791 41.3648 44.1327 41.3759 42.3873C41.3445 36.7936 41.4173 31.3241 41.3605 25.7184C40.9549 22.1401 44.701 24.0072 45.7558 25.539C47.2273 27.6764 47.7707 33.8847 47.4848 36.3514C47.8023 35.8424 48.0879 35.3902 48.454 34.9157C50.1847 32.6731 53.7236 32.1377 54.3384 35.5878C54.7039 37.6397 54.7066 39.7966 54.7986 41.888C52.5703 44.3753 53.4002 49.7811 53.1995 53.423C52.3934 54.8368 51.9385 58.1637 51.757 59.8413C51.0671 66.2097 47.4668 72.9088 41.6245 76.0967C41.3204 72.4588 41.7205 67.783 41.3481 64.4757C42.7429 63.4906 43.8248 62.3178 44.5982 60.7918C46.5054 57.028 45.1749 51.8178 41.2953 49.9041Z" fill="#DDF2FD"/>
<path d="M16.6619 20.9284C17.4605 20.2382 20.1078 18.8628 21.1405 18.3489C28.7445 14.5656 37.536 10.4594 45.51 7.56816C45.7284 8.92558 45.8028 10.5468 47.4619 10.7728C47.8865 11.283 47.9678 11.2175 48.0445 11.7787C35.2026 13.8867 29.3479 16.1998 19.0392 24.6844C18.2686 23.2908 17.5771 22.2327 16.6619 20.9284Z" fill="#FEA7C8"/>
<path d="M0 66.1191C1.57976 66.3985 3.93254 67.0901 5.3082 67.8971C4.94973 69.2947 9.19779 76.8252 10.0447 78.4147C11.5 81.1459 13.0081 82.382 14.9052 84.5973C12.8644 83.9341 8.95361 81.6095 6.96595 80.5185C6.52362 80.2756 5.6459 79.555 5.05936 79.1989C2.90963 75.89 0.468507 70.0469 0 66.1191Z" fill="#FEDA66"/>
<path d="M11.6123 56.4039C15.0483 56.1587 14.4906 57.4574 14.5426 60.3959C14.5712 62.0178 14.5049 63.6794 14.4823 65.3029C13.3305 65.268 12.6818 65.2155 11.5442 65.0421C11.4077 64.9997 11.2729 64.9521 11.14 64.8996C10.0238 64.445 9.13578 63.5637 8.67344 62.4515C7.45329 59.5808 8.92633 57.4555 11.6123 56.4039Z" fill="#DDF2FD"/>
<path d="M59.0855 56.7117C68.11 56.6445 77.1349 56.6295 86.1597 56.6667C89.0274 64.2804 89.651 71.6893 89.3896 79.7797C89.3175 82.0204 89.3707 84.37 88.8512 86.5583L87.0291 87.781C87.0458 85.9531 87.1538 82.4606 86.9404 80.7073C86.8467 83.0136 86.8927 85.553 86.8914 87.8775C86.196 88.3037 84.2529 89.5571 83.5427 89.5979C82.7184 90.0107 81.8973 90.4297 81.0795 90.8555C81.0615 89.2568 81.071 87.5854 80.9571 85.9955C80.8543 87.5212 80.9205 89.4039 80.9626 90.9585C80.1908 91.2977 79.3126 91.7069 78.5343 92.0003C77.9994 92.2508 76.1901 93.2038 75.6944 93.0092C75.4203 93.6431 74.1694 93.901 73.5366 94.079C72.2876 94.6421 71.0801 95.0259 69.7849 95.4583C66.0759 96.6651 63.2089 97.0733 59.3557 97.2683C59.3277 94.9676 59.4112 91.6423 59.2288 89.4361C59.2402 88.4185 59.2082 87.6526 59.1348 86.6362C58.9331 84.7571 59.0917 79.0395 59.0986 76.7945C59.1354 70.1004 59.1312 63.4059 59.0855 56.7117Z" fill="#78CFFD"/>
<path d="M69.67 76.1851C66.8001 72.5224 66.3357 67.3748 70.3224 64.3166C71.7635 63.2141 73.5868 62.7342 75.3847 62.9836C80.0335 63.6094 81.52 67.2049 81.5187 71.4085C87.7876 70.5745 86.8327 76.5529 86.9404 80.7073C86.8467 83.0136 86.8927 85.553 86.8914 87.8775C86.196 88.3037 84.2529 89.5571 83.5427 89.5979C82.7184 90.0107 81.8973 90.4297 81.0795 90.8555C81.0615 89.2568 81.071 87.5854 80.9571 85.9955C80.8543 87.5212 80.9205 89.4039 80.9626 90.9585C80.1908 91.2977 79.3126 91.7069 78.5343 92.0003C77.9994 92.2508 76.1901 93.2038 75.6944 93.0092C75.4203 93.6431 74.1694 93.901 73.5366 94.079C72.2876 94.6421 71.0801 95.0259 69.7849 95.4583C69.7878 89.1701 69.8877 82.4374 69.67 76.1851Z" fill="#FEE8F1"/>
<path d="M69.67 76.1851C71.2273 77.372 71.6278 77.6743 73.5859 77.8099L73.5366 94.079C72.2876 94.6421 71.0801 95.0259 69.7849 95.4583C69.7878 89.1701 69.8877 82.4374 69.67 76.1851Z" fill="#353F89"/>
<path d="M75.8249 82.7283C76.2639 82.6927 76.7035 82.6667 77.1434 82.6504C77.6812 82.6354 77.9348 82.7214 78.3241 83.0905C78.7301 83.9246 78.5437 90.581 78.5343 92.0003C77.9994 92.2508 76.1901 93.2038 75.6944 93.0092C75.9734 89.847 75.4973 85.989 75.8249 82.7283Z" fill="#353F89"/>
<path d="M80.9571 85.9955C80.9568 84.8275 80.4686 78.5902 83.2347 80.9339C83.8861 81.486 83.5215 88.3044 83.5427 89.5979C82.7184 90.0107 81.8973 90.4297 81.0795 90.8555C81.0615 89.2568 81.071 87.5854 80.9571 85.9955Z" fill="#78CFFD"/>
<path d="M99.8462 78.7979C101.043 77.1767 105.516 57.1346 105.781 53.872C106.528 44.6407 105.73 32.4491 103.708 23.2947C103.529 22.4848 102.893 19.9594 103.251 19.3741C109.319 23.3681 112.881 27.8052 114.371 35.0348C117.228 48.89 109.865 72.9111 102.161 84.5546C99.3433 88.8137 95.572 92.5247 91.6855 95.8193C90.9019 96.4838 90.227 97.1434 89.3485 97.6938C89.2131 97.6843 89.0326 97.6798 88.9047 97.6514C93.6654 94.0389 98.2666 84.5611 99.8462 78.7979Z" fill="#FEDA66"/>
<path d="M58.254 28.8144C66.2113 32.8951 71.6597 38.9668 75.8351 46.78C76.851 48.6807 77.661 50.7264 78.6139 52.6486L69.0522 52.6665L62.1052 52.7057C61.1059 52.6965 60.107 52.7008 59.1077 52.7193C59.0969 54.0301 59.0633 55.4061 59.0855 56.7117C59.1312 63.4059 59.1354 70.1004 59.0986 76.7945C59.0917 79.0395 58.9331 84.7571 59.1348 86.6362C57.3382 87.2016 55.3704 87.6698 55.307 85.0685C55.073 75.4534 55.434 65.7979 55.1674 56.1858C53.782 55.1619 53.656 55.0383 53.1995 53.423C53.4002 49.7811 52.5703 44.3753 54.7986 41.888C55.3145 41.8215 56.7299 41.8587 57.3134 41.861C57.9984 38.6632 58.0529 36.581 58.0588 33.3063C58.0611 32.0157 58.0634 30.0531 58.254 28.8144Z" fill="#FEDA66"/>
<path d="M62.1052 52.7057C62.3174 51.1999 62.6629 49.8118 63.1172 48.366C65.8589 39.6375 68.4191 49.2728 69.0522 52.6665L62.1052 52.7057Z" fill="#78CFFD"/>
<path d="M45.51 7.56816C52.5964 4.81811 64.6351 0.66434 72.2142 0.501306C74.7861 0.446201 77.0086 2.14273 78.6886 4.02446C79.2287 4.32086 80.3997 3.78872 81.0073 4.32477C82.9135 6.00695 85.4082 11.3512 86.5634 13.5828C87.471 14.9053 89.5691 14.275 91.1232 16.1242C89.7026 17.1894 74.6096 15.7622 73.0108 16.6521C71.8578 16.2181 70.2362 15.2718 69.0277 14.7452C64.1997 12.6405 60.6925 11.5954 55.3919 11.5612C53.1114 11.5957 50.3064 11.6032 48.0445 11.7787C47.9678 11.2175 47.8865 11.283 47.4619 10.7728C45.8028 10.5468 45.7284 8.92558 45.51 7.56816Z" fill="#FEC1D9"/>
<path d="M45.51 7.56816C52.5964 4.81811 64.6351 0.66434 72.2142 0.501306C74.7861 0.446201 77.0086 2.14273 78.6886 4.02446C76.4127 4.72388 73.4031 4.53802 70.372 5.50024C68.6361 5.84914 66.8957 6.07217 65.1589 6.40051C61.3328 7.14982 57.5243 7.98749 53.737 8.91286C51.93 9.36903 49.1991 10.0828 47.4619 10.7728C45.8028 10.5468 45.7284 8.92558 45.51 7.56816Z" fill="#FEDA66"/>
<path d="M78.6886 4.02446C79.2287 4.32086 80.3997 3.78872 81.0073 4.32477C82.9135 6.00695 85.4082 11.3512 86.5634 13.5828C86.1216 13.5919 82.3891 12.5508 81.7064 12.3375C79.7052 11.7128 75.3044 11.3039 73.6753 10.613C72.9041 9.58358 71.4992 6.00108 70.372 5.50024C73.4031 4.53802 76.4127 4.72388 78.6886 4.02446Z" fill="#FEC67D"/>
<path d="M58.3186 24.1206C62.5216 25.4187 66.1493 28.0152 69.4193 30.8966C76.0354 36.7264 80.2535 44.5983 83.4315 52.6913C84.8981 52.7122 89.4836 52.3959 90.2433 53.4465C94.1338 58.8253 93.1142 82.6748 88.8512 86.5583C89.3707 84.37 89.3175 82.0204 89.3896 79.7797C89.651 71.6893 89.0274 64.2804 86.1597 56.6667C77.1349 56.6295 68.11 56.6445 59.0855 56.7117C59.0633 55.4061 59.0969 54.0301 59.1077 52.7193C60.107 52.7008 61.1059 52.6965 62.1052 52.7057L69.0522 52.6665L78.6139 52.6486C77.661 50.7264 76.851 48.6807 75.8351 46.78C71.6597 38.9668 66.2113 32.8951 58.254 28.8144C58.254 27.4795 58.2017 25.3806 58.3186 24.1206Z" fill="#353F89"/>
<path d="M91.4942 16.5523C94.6425 17.0241 100.624 17.315 103.251 19.3741C102.893 19.9594 103.529 22.4848 103.708 23.2947C105.73 32.4491 106.528 44.6407 105.781 53.872C105.516 57.1346 101.043 77.1767 99.8462 78.7979C99.8511 77.2103 100.469 74.1204 100.578 72.2015C100.983 65.1037 100.785 56.4196 98.997 49.4919C99.263 48.5643 99.0306 45.7288 98.9092 44.626C97.8496 35.0181 95.6611 25.2922 91.4942 16.5523Z" fill="#FE62A6"/>
<path d="M91.1232 16.1242C91.2354 16.2406 91.4299 16.4199 91.4942 16.5523C95.6611 25.2922 97.8496 35.0181 98.9092 44.626C99.0306 45.7288 99.263 48.5643 98.997 49.4919C97.8675 46.4644 97.3744 44.5892 95.9297 41.4547C91.1627 30.9367 83.1244 22.2379 73.0108 16.6521C74.6096 15.7622 89.7026 17.1894 91.1232 16.1242Z" fill="#FEA7C8"/>
</svg>
